{
    "accessors": [
        {
            "bufferView": 0,
            "byteOffset": 0,
            "componentType": 5126,
            "count": 4,
            "max": [
                8.0,
                9.6,
                0.0
            ],
            "min": [
                0.0,
                0.0,
                0.0
            ],
            "type": "VEC3"
        },
        {
            "bufferView": 0,
            "byteOffset": 48,
            "componentType": 5126,
            "count": 4,
            "max": [
                0.0,
                9.6,
                0.0
            ],
            "min": [
                0.0,
                0.0,
                -8.0
            ],
            "type": "VEC3"
        },
        {
            "bufferView": 0,
            "byteOffset": 96,
            "componentType": 5126,
            "count": 4,
            "max": [
                8.0,
                9.6,
                0.0
            ],
            "min": [
                8.0,
                0.0,
                -8.0
            ],
            "type": "VEC3"
        },
        {
            "bufferView": 0,
            "byteOffset": 144,
            "componentType": 5126,
            "count": 4,
            "max": [
                8.0,
                0.0,
                0.0
            ],
            "min": [
                0.0,
                0.0,
                -8.0
            ],
            "type": "VEC3"
        },
        {
            "bufferView": 0,
            "byteOffset": 192,
            "componentType": 5126,
            "count": 41,
            "max": [
                8.0,
                9.6,
                0.0
            ],
            "min": [
                0.0,
                9.6,
                -8.0
            ],
            "type": "VEC3"
        },
        {
            "bufferView": 0,
            "byteOffset": 684,
            "componentType": 5126,
            "count": 4,
            "max": [
                8.0,
                9.6,
                -8.0
            ],
            "min": [
                0.0,
                0.0,
                -8.0
            ],
            "type": "VEC3"
        },
        {
            "bufferView": 0,
            "byteOffset": 732,
            "componentType": 5126,
            "count": 76,
            "max": [
                6.4,
                11.2,
                -1.6021624811087643
            ],
            "min": [
                1.6086460274979362,
                9.6,
                -6.397837518891236
            ],
            "type": "VEC3"
        },
        {
            "bufferView": 0,
            "byteOffset": 1644,
            "componentType": 5126,
            "count": 37,
            "max": [
                6.4,
                11.2,
                -1.6021624811087643
            ],
            "min": [
                1.6086460274979362,
                11.2,
                -6.397837518891236
            ],
            "type": "VEC3"
        },
        {
            "bufferView": 1,
            "byteOffset": 0,
            "componentType": 5126,
            "count": 4,
            "type": "VEC3"
        },
        {
            "bufferView": 1,
            "byteOffset": 48,
            "componentType": 5126,
            "count": 4,
            "type": "VEC3"
        },
        {
            "bufferView": 1,
            "byteOffset": 96,
            "componentType": 5126,
            "count": 4,
            "type": "VEC3"
        },
        {
            "bufferView": 1,
            "byteOffset": 144,
            "componentType": 5126,
            "count": 4,
            "type": "VEC3"
        },
        {
            "bufferView": 1,
            "byteOffset": 192,
            "componentType": 5126,
            "count": 41,
            "type": "VEC3"
        },
        {
            "bufferView": 1,
            "byteOffset": 684,
            "componentType": 5126,
            "count": 4,
            "type": "VEC3"
        },
        {
            "bufferView": 1,
            "byteOffset": 732,
            "componentType": 5126,
            "count": 76,
            "type": "VEC3"
        },
        {
            "bufferView": 1,
            "byteOffset": 1644,
            "componentType": 5126,
            "count": 37,
            "type": "VEC3"
        },
        {
            "bufferView": 2,
            "byteOffset": 0,
            "componentType": 5126,
            "count": 4,
            "type": "VEC2"
        },
        {
            "bufferView": 2,
            "byteOffset": 32,
            "componentType": 5126,
            "count": 4,
            "type": "VEC2"
        },
        {
            "bufferView": 2,
            "byteOffset": 64,
            "componentType": 5126,
            "count": 4,
            "type": "VEC2"
        },
        {
            "bufferView": 2,
            "byteOffset": 96,
            "componentType": 5126,
            "count": 4,
            "type": "VEC2"
        },
        {
            "bufferView": 2,
            "byteOffset": 128,
            "componentType": 5126,
            "count": 41,
            "type": "VEC2"
        },
        {
            "bufferView": 2,
            "byteOffset": 456,
            "componentType": 5126,
            "count": 4,
            "type": "VEC2"
        },
        {
            "bufferView": 2,
            "byteOffset": 488,
            "componentType": 5126,
            "count": 76,
            "type": "VEC2"
        },
        {
            "bufferView": 2,
            "byteOffset": 1096,
            "componentType": 5126,
            "count": 37,
            "type": "VEC2"
        },
        {
            "bufferView": 3,
            "byteOffset": 0,
            "componentType": 5123,
            "count": 6,
            "type": "SCALAR"
        },
        {
            "bufferView": 3,
            "byteOffset": 12,
            "componentType": 5123,
            "count": 6,
            "type": "SCALAR"
        },
        {
            "bufferView": 3,
            "byteOffset": 24,
            "componentType": 5123,
            "count": 6,
            "type": "SCALAR"
        },
        {
            "bufferView": 3,
            "byteOffset": 36,
            "componentType": 5123,
            "count": 6,
            "type": "SCALAR"
        },
        {
            "bufferView": 3,
            "byteOffset": 48,
            "componentType": 5123,
            "count": 123,
            "type": "SCALAR"
        },
        {
            "bufferView": 3,
            "byteOffset": 296,
            "componentType": 5123,
            "count": 6,
            "type": "SCALAR"
        },
        {
            "bufferView": 3,
            "byteOffset": 308,
            "componentType": 5123,
            "count": 222,
            "type": "SCALAR"
        },
        {
            "bufferView": 3,
            "byteOffset": 752,
            "componentType": 5123,
            "count": 105,
            "type": "SCALAR"
        }
    ],
    "asset": {
        "generator": "Open CASCADE Technology [www.opencascade.com]",
        "version": "2.0"
    },
    "bufferViews": [
        {
            "buffer": 0,
            "byteLength": 2088,
            "byteOffset": 0,
            "byteStride": 12,
            "target": 34962
        },
        {
            "buffer": 0,
            "byteLength": 2088,
            "byteOffset": 2088,
            "byteStride": 12,
            "target": 34962
        },
        {
            "buffer": 0,
            "byteLength": 1392,
            "byteOffset": 4176,
            "byteStride": 8,
            "target": 34962
        },
        {
            "buffer": 0,
            "byteLength": 964,
            "byteOffset": 5568,
            "target": 34963
        }
    ],
    "buffers": [
        {
            "byteLength": 6532,
            "uri": "1x1x3.bin"
        }
    ],
    "materials": [
        {
            "name": "mat_0",
            "pbrMetallicRoughness": {
                "baseColorFactor": [
                    0.800000011920929,
                    0.800000011920929,
                    0.800000011920929,
                    1.0
                ]
            },
            "doubleSided": true
        }
    ],
    "meshes": [
        {
            "name": "Body",
            "primitives": [
                {
                    "attributes": {
                        "NORMAL": 8,
                        "POSITION": 0,
                        "TEXCOORD_0": 16
                    },
                    "indices": 24,
                    "material": 0,
                    "mode": 4
                },
                {
                    "attributes": {
                        "NORMAL": 9,
                        "POSITION": 1,
                        "TEXCOORD_0": 17
                    },
                    "indices": 25,
                    "material": 0,
                    "mode": 4
                },
                {
                    "attributes": {
                        "NORMAL": 10,
                        "POSITION": 2,
                        "TEXCOORD_0": 18
                    },
                    "indices": 26,
                    "material": 0,
                    "mode": 4
                },
                {
                    "attributes": {
                        "NORMAL": 11,
                        "POSITION": 3,
                        "TEXCOORD_0": 19
                    },
                    "indices": 27,
                    "material": 0,
                    "mode": 4
                },
                {
                    "attributes": {
                        "NORMAL": 12,
                        "POSITION": 4,
                        "TEXCOORD_0": 20
                    },
                    "indices": 28,
                    "material": 0,
                    "mode": 4
                },
                {
                    "attributes": {
                        "NORMAL": 13,
                        "POSITION": 5,
                        "TEXCOORD_0": 21
                    },
                    "indices": 29,
                    "material": 0,
                    "mode": 4
                },
                {
                    "attributes": {
                        "NORMAL": 14,
                        "POSITION": 6,
                        "TEXCOORD_0": 22
                    },
                    "indices": 30,
                    "material": 0,
                    "mode": 4
                },
                {
                    "attributes": {
                        "NORMAL": 15,
                        "POSITION": 7,
                        "TEXCOORD_0": 23
                    },
                    "indices": 31,
                    "material": 0,
                    "mode": 4
                }
            ]
        }
    ],
    "nodes": [
        {
            "mesh": 0,
            "name": "Body"
        }
    ],
    "scene": 0,
    "scenes": [
        {
            "nodes": [
                0
            ]
        }
    ]
}