{"accessors":[{"bufferView":0,"byteOffset":0,"componentType":5126,"count":4,"max":[7.800000000000001,9.6,0.0],"min":[0.0,0.0,0.0],"type":"VEC3"},{"bufferView":0,"byteOffset":48,"componentType":5126,"count":4,"max":[0.0,9.6,0.0],"min":[0.0,0.0,-7.800000000000001],"type":"VEC3"},{"bufferView":0,"byteOffset":96,"componentType":5126,"count":4,"max":[7.800000000000001,9.6,0.0],"min":[7.800000000000001,0.0,-7.800000000000001],"type":"VEC3"},{"bufferView":0,"byteOffset":144,"componentType":5126,"count":8,"max":[7.800000000000001,0.0,0.0],"min":[0.0,0.0,-7.800000000000001],"type":"VEC3"},{"bufferView":0,"byteOffset":240,"componentType":5126,"count":41,"max":[7.800000000000001,9.6,0.0],"min":[0.0,9.6,-7.800000000000001],"type":"VEC3"},{"bufferView":0,"byteOffset":732,"componentType":5126,"count":4,"max":[7.800000000000001,9.6,-7.800000000000001],"min":[0.0,0.0,-7.800000000000001],"type":"VEC3"},{"bufferView":0,"byteOffset":780,"componentType":5126,"count":4,"max":[1.2,8.6,-1.2],"min":[1.2,0.0,-6.6],"type":"VEC3"},{"bufferView":0,"byteOffset":828,"componentType":5126,"count":4,"max":[6.600000000000001,8.6,-1.2],"min":[1.2,0.0,-1.2],"type":"VEC3"},{"bufferView":0,"byteOffset":876,"componentType":5126,"count":4,"max":[6.600000000000001,8.6,-1.2],"min":[6.600000000000001,0.0,-6.6],"type":"VEC3"},{"bufferView":0,"byteOffset":924,"componentType":5126,"count":4,"max":[6.600000000000001,8.6,-6.6],"min":[1.2,0.0,-6.6],"type":"VEC3"},{"bufferView":0,"byteOffset":972,"componentType":5126,"count":76,"max":[6.300000000000001,11.4,-1.5021624811087642],"min":[1.508646027497936,9.6,-6.297837518891235],"type":"VEC3"},{"bufferView":0,"byteOffset":1884,"componentType":5126,"count":4,"max":[6.600000000000001,8.6,-1.2],"min":[1.2,8.6,-6.6],"type":"VEC3"},{"bufferView":0,"byteOffset":1932,"componentType":5126,"count":37,"max":[6.300000000000001,11.4,-1.5021624811087642],"min":[1.508646027497936,11.4,-6.297837518891235],"type":"VEC3"},{"bufferView":0,"byteOffset":2376,"componentType":5126,"count":4,"max":[31.799999999999998,9.6,0.0],"min":[0.0,0.0,0.0],"type":"VEC3"},{"bufferView":0,"byteOffset":2424,"componentType":5126,"count":4,"max":[0.0,9.6,0.0],"min":[0.0,0.0,-15.8],"type":"VEC3"},{"bufferView":0,"byteOffset":2472,"componentType":5126,"count":4,"max":[31.799999999999998,9.6,0.0],"min":[31.799999999999998,0.0,-15.8],"type":"VEC3"},{"bufferView":0,"byteOffset":2520,"componentType":5126,"count":8,"max":[31.799999999999998,0.0,0.0],"min":[0.0,0.0,-15.8],"type":"VEC3"},{"bufferView":0,"byteOffset":2616,"componentType":5126,"count":212,"max":[31.799999999999998,9.6,0.0],"min":[0.0,9.599999999999998,-15.8],"type":"VEC3"},{"bufferView":0,"byteOffset":5160,"componentType":5126,"count":4,"max":[31.799999999999998,9.6,-15.8],"min":[0.0,0.0,-15.8],"type":"VEC3"},{"bufferView":0,"byteOffset":5208,"componentType":5126,"count":4,"max":[1.199999999999999,8.6,-1.199999999999999],"min":[1.199999999999999,0.0,-14.600000000000002],"type":"VEC3"},{"bufferView":0,"byteOffset":5256,"componentType":5126,"count":4,"max":[30.6,8.6,-1.199999999999999],"min":[1.199999999999999,0.0,-1.199999999999999],"type":"VEC3"},{"bufferView":0,"byteOffset":5304,"componentType":5126,"count":4,"max":[30.6,8.6,-1.199999999999999],"min":[30.6,0.0,-14.600000000000002],"type":"VEC3"},{"bufferView":0,"byteOffset":5352,"componentType":5126,"count":4,"max":[30.6,8.6,-14.600000000000002],"min":[1.199999999999999,0.0,-14.600000000000002],"type":"VEC3"},{"bufferView":0,"byteOffset":5400,"componentType":5126,"count":54,"max":[6.300000000000001,11.4,-1.5174987021646694],"min":[1.4999999999999996,9.6,-6.28250129783533],"type":"VEC3"},{"bufferView":0,"byteOffset":6048,"componentType":5126,"count":54,"max":[14.3,11.4,-1.5174987021646694],"min":[9.5,9.6,-6.28250129783533],"type":"VEC3"},{"bufferView":0,"byteOffset":6696,"componentType":5126,"count":54,"max":[22.3,11.4,-1.5174987021646694],"min":[17.5,9.6,-6.28250129783533],"type":"VEC3"},{"bufferView":0,"byteOffset":7344,"componentType":5126,"count":54,"max":[30.3,11.4,-1.5174987021646694],"min":[25.5,9.6,-6.28250129783533],"type":"VEC3"},{"bufferView":0,"byteOffset":7992,"componentType":5126,"count":54,"max":[6.300000000000002,11.399999999999999,-9.51749870216467],"min":[1.5000000000000007,9.599999999999998,-14.28250129783533],"type":"VEC3"},{"bufferView":0,"byteOffset":8640,"componentType":5126,"count":54,"max":[14.3,11.399999999999999,-9.51749870216467],"min":[9.5,9.599999999999998,-14.28250129783533],"type":"VEC3"},{"bufferView":0,"byteOffset":9288,"componentType":5126,"count":54,"max":[22.3,11.399999999999999,-9.51749870216467],"min":[17.5,9.599999999999998,-14.28250129783533],"type":"VEC3"},{"bufferView":0,"byteOffset":9936,"componentType":5126,"count":54,"max":[30.3,11.399999999999999,-9.51749870216467],"min":[25.5,9.599999999999998,-14.28250129783533],"type":"VEC3"},{"bufferView":0,"byteOffset":10584,"componentType":5126,"count":4,"max":[30.6,8.6,-1.199999999999999],"min":[1.199999999999999,8.6,-14.600000000000002],"type":"VEC3"},{"bufferView":0,"byteOffset":10632,"componentType":5126,"count":26,"max":[6.300000000000001,11.4,-1.5174987021646694],"min":[1.4999999999999996,11.4,-6.28250129783533],"type":"VEC3"},{"bufferView":0,"byteOffset":10944,"componentType":5126,"count":26,"max":[14.3,11.4,-1.5174987021646694],"min":[9.5,11.4,-6.28250129783533],"type":"VEC3"},{"bufferView":0,"byteOffset":11256,"componentType":5126,"count":26,"max":[22.3,11.4,-1.5174987021646694],"min":[17.5,11.4,-6.28250129783533],"type":"VEC3"},{"bufferView":0,"byteOffset":11568,"componentType":5126,"count":26,"max":[30.3,11.4,-1.5174987021646694],"min":[25.5,11.4,-6.28250129783533],"type":"VEC3"},{"bufferView":0,"byteOffset":11880,"componentType":5126,"count":26,"max":[6.300000000000002,11.399999999999999,-9.51749870216467],"min":[1.5000000000000007,11.399999999999999,-14.28250129783533],"type":"VEC3"},{"bufferView":0,"byteOffset":12192,"componentType":5126,"count":26,"max":[14.3,11.399999999999999,-9.51749870216467],"min":[9.5,11.399999999999999,-14.28250129783533],"type":"VEC3"},{"bufferView":0,"byteOffset":12504,"componentType":5126,"count":26,"max":[22.3,11.399999999999999,-9.51749870216467],"min":[17.5,11.399999999999999,-14.28250129783533],"type":"VEC3"},{"bufferView":0,"byteOffset":12816,"componentType":5126,"count":26,"max":[30.3,11.399999999999999,-9.51749870216467],"min":[25.5,11.399999999999999,-14.28250129783533],"type":"VEC3"},{"bufferView":1,"byteOffset":0,"componentType":5126,"count":4,"type":"VEC3"},{"bufferView":1,"byteOffset":48,"componentType":5126,"count":4,"type":"VEC3"},{"bufferView":1,"byteOffset":96,"componentType":5126,"count":4,"type":"VEC3"},{"bufferView":1,"byteOffset":144,"componentType":5126,"count":8,"type":"VEC3"},{"bufferView":1,"byteOffset":240,"componentType":5126,"count":41,"type":"VEC3"},{"bufferView":1,"byteOffset":732,"componentType":5126,"count":4,"type":"VEC3"},{"bufferView":1,"byteOffset":780,"componentType":5126,"count":4,"type":"VEC3"},{"bufferView":1,"byteOffset":828,"componentType":5126,"count":4,"type":"VEC3"},{"bufferView":1,"byteOffset":876,"componentType":5126,"count":4,"type":"VEC3"},{"bufferView":1,"byteOffset":924,"componentType":5126,"count":4,"type":"VEC3"},{"bufferView":1,"byteOffset":972,"componentType":5126,"count":76,"type":"VEC3"},{"bufferView":1,"byteOffset":1884,"componentType":5126,"count":4,"type":"VEC3"},{"bufferView":1,"byteOffset":1932,"componentType":5126,"count":37,"type":"VEC3"},{"bufferView":1,"byteOffset":2376,"componentType":5126,"count":4,"type":"VEC3"},{"bufferView":1,"byteOffset":2424,"componentType":5126,"count":4,"type":"VEC3"},{"bufferView":1,"byteOffset":2472,"componentType":5126,"count":4,"type":"VEC3"},{"bufferView":1,"byteOffset":2520,"componentType":5126,"count":8,"type":"VEC3"},{"bufferView":1,"byteOffset":2616,"componentType":5126,"count":212,"type":"VEC3"},{"bufferView":1,"byteOffset":5160,"componentType":5126,"count":4,"type":"VEC3"},{"bufferView":1,"byteOffset":5208,"componentType":5126,"count":4,"type":"VEC3"},{"bufferView":1,"byteOffset":5256,"componentType":5126,"count":4,"type":"VEC3"},{"bufferView":1,"byteOffset":5304,"componentType":5126,"count":4,"type":"VEC3"},{"bufferView":1,"byteOffset":5352,"componentType":5126,"count":4,"type":"VEC3"},{"bufferView":1,"byteOffset":5400,"componentType":5126,"count":54,"type":"VEC3"},{"bufferView":1,"byteOffset":6048,"componentType":5126,"count":54,"type":"VEC3"},{"bufferView":1,"byteOffset":6696,"componentType":5126,"count":54,"type":"VEC3"},{"bufferView":1,"byteOffset":7344,"componentType":5126,"count":54,"type":"VEC3"},{"bufferView":1,"byteOffset":7992,"componentType":5126,"count":54,"type":"VEC3"},{"bufferView":1,"byteOffset":8640,"componentType":5126,"count":54,"type":"VEC3"},{"bufferView":1,"byteOffset":9288,"componentType":5126,"count":54,"type":"VEC3"},{"bufferView":1,"byteOffset":9936,"componentType":5126,"count":54,"type":"VEC3"},{"bufferView":1,"byteOffset":10584,"componentType":5126,"count":4,"type":"VEC3"},{"bufferView":1,"byteOffset":10632,"componentType":5126,"count":26,"type":"VEC3"},{"bufferView":1,"byteOffset":10944,"componentType":5126,"count":26,"type":"VEC3"},{"bufferView":1,"byteOffset":11256,"componentType":5126,"count":26,"type":"VEC3"},{"bufferView":1,"byteOffset":11568,"componentType":5126,"count":26,"type":"VEC3"},{"bufferView":1,"byteOffset":11880,"componentType":5126,"count":26,"type":"VEC3"},{"bufferView":1,"byteOffset":12192,"componentType":5126,"count":26,"type":"VEC3"},{"bufferView":1,"byteOffset":12504,"componentType":5126,"count":26,"type":"VEC3"},{"bufferView":1,"byteOffset":12816,"componentType":5126,"count":26,"type":"VEC3"},{"bufferView":2,"byteOffset":0,"componentType":5126,"count":4,"type":"VEC2"},{"bufferView":2,"byteOffset":32,"componentType":5126,"count":4,"type":"VEC2"},{"bufferView":2,"byteOffset":64,"componentType":5126,"count":4,"type":"VEC2"},{"bufferView":2,"byteOffset":96,"componentType":5126,"count":8,"type":"VEC2"},{"bufferView":2,"byteOffset":160,"componentType":5126,"count":41,"type":"VEC2"},{"bufferView":2,"byteOffset":488,"componentType":5126,"count":4,"type":"VEC2"},{"bufferView":2,"byteOffset":520,"componentType":5126,"count":4,"type":"VEC2"},{"bufferView":2,"byteOffset":552,"componentType":5126,"count":4,"type":"VEC2"},{"bufferView":2,"byteOffset":584,"componentType":5126,"count":4,"type":"VEC2"},{"bufferView":2,"byteOffset":616,"componentType":5126,"count":4,"type":"VEC2"},{"bufferView":2,"byteOffset":648,"componentType":5126,"count":76,"type":"VEC2"},{"bufferView":2,"byteOffset":1256,"componentType":5126,"count":4,"type":"VEC2"},{"bufferView":2,"byteOffset":1288,"componentType":5126,"count":37,"type":"VEC2"},{"bufferView":2,"byteOffset":1584,"componentType":5126,"count":4,"type":"VEC2"},{"bufferView":2,"byteOffset":1616,"componentType":5126,"count":4,"type":"VEC2"},{"bufferView":2,"byteOffset":1648,"componentType":5126,"count":4,"type":"VEC2"},{"bufferView":2,"byteOffset":1680,"componentType":5126,"count":8,"type":"VEC2"},{"bufferView":2,"byteOffset":1744,"componentType":5126,"count":212,"type":"VEC2"},{"bufferView":2,"byteOffset":3440,"componentType":5126,"count":4,"type":"VEC2"},{"bufferView":2,"byteOffset":3472,"componentType":5126,"count":4,"type":"VEC2"},{"bufferView":2,"byteOffset":3504,"componentType":5126,"count":4,"type":"VEC2"},{"bufferView":2,"byteOffset":3536,"componentType":5126,"count":4,"type":"VEC2"},{"bufferView":2,"byteOffset":3568,"componentType":5126,"count":4,"type":"VEC2"},{"bufferView":2,"byteOffset":3600,"componentType":5126,"count":54,"type":"VEC2"},{"bufferView":2,"byteOffset":4032,"componentType":5126,"count":54,"type":"VEC2"},{"bufferView":2,"byteOffset":4464,"componentType":5126,"count":54,"type":"VEC2"},{"bufferView":2,"byteOffset":4896,"componentType":5126,"count":54,"type":"VEC2"},{"bufferView":2,"byteOffset":5328,"componentType":5126,"count":54,"type":"VEC2"},{"bufferView":2,"byteOffset":5760,"componentType":5126,"count":54,"type":"VEC2"},{"bufferView":2,"byteOffset":6192,"componentType":5126,"count":54,"type":"VEC2"},{"bufferView":2,"byteOffset":6624,"componentType":5126,"count":54,"type":"VEC2"},{"bufferView":2,"byteOffset":7056,"componentType":5126,"count":4,"type":"VEC2"},{"bufferView":2,"byteOffset":7088,"componentType":5126,"count":26,"type":"VEC2"},{"bufferView":2,"byteOffset":7296,"componentType":5126,"count":26,"type":"VEC2"},{"bufferView":2,"byteOffset":7504,"componentType":5126,"count":26,"type":"VEC2"},{"bufferView":2,"byteOffset":7712,"componentType":5126,"count":26,"type":"VEC2"},{"bufferView":2,"byteOffset":7920,"componentType":5126,"count":26,"type":"VEC2"},{"bufferView":2,"byteOffset":8128,"componentType":5126,"count":26,"type":"VEC2"},{"bufferView":2,"byteOffset":8336,"componentType":5126,"count":26,"type":"VEC2"},{"bufferView":2,"byteOffset":8544,"componentType":5126,"count":26,"type":"VEC2"},{"bufferView":3,"byteOffset":0,"componentType":5123,"count":6,"type":"SCALAR"},{"bufferView":3,"byteOffset":12,"componentType":5123,"count":6,"type":"SCALAR"},{"bufferView":3,"byteOffset":24,"componentType":5123,"count":6,"type":"SCALAR"},{"bufferView":3,"byteOffset":36,"componentType":5123,"count":24,"type":"SCALAR"},{"bufferView":3,"byteOffset":84,"componentType":5123,"count":123,"type":"SCALAR"},{"bufferView":3,"byteOffset":332,"componentType":5123,"count":6,"type":"SCALAR"},{"bufferView":3,"byteOffset":344,"componentType":5123,"count":6,"type":"SCALAR"},{"bufferView":3,"byteOffset":356,"componentType":5123,"count":6,"type":"SCALAR"},{"bufferView":3,"byteOffset":368,"componentType":5123,"count":6,"type":"SCALAR"},{"bufferView":3,"byteOffset":380,"componentType":5123,"count":6,"type":"SCALAR"},{"bufferView":3,"byteOffset":392,"componentType":5123,"count":222,"type":"SCALAR"},{"bufferView":3,"byteOffset":836,"componentType":5123,"count":6,"type":"SCALAR"},{"bufferView":3,"byteOffset":848,"componentType":5123,"count":105,"type":"SCALAR"},{"bufferView":3,"byteOffset":1060,"componentType":5123,"count":6,"type":"SCALAR"},{"bufferView":3,"byteOffset":1072,"componentType":5123,"count":6,"type":"SCALAR"},{"bufferView":3,"byteOffset":1084,"componentType":5123,"count":6,"type":"SCALAR"},{"bufferView":3,"byteOffset":1096,"componentType":5123,"count":24,"type":"SCALAR"},{"bufferView":3,"byteOffset":1144,"componentType":5123,"count":678,"type":"SCALAR"},{"bufferView":3,"byteOffset":2500,"componentType":5123,"count":6,"type":"SCALAR"},{"bufferView":3,"byteOffset":2512,"componentType":5123,"count":6,"type":"SCALAR"},{"bufferView":3,"byteOffset":2524,"componentType":5123,"count":6,"type":"SCALAR"},{"bufferView":3,"byteOffset":2536,"componentType":5123,"count":6,"type":"SCALAR"},{"bufferView":3,"byteOffset":2548,"componentType":5123,"count":6,"type":"SCALAR"},{"bufferView":3,"byteOffset":2560,"componentType":5123,"count":156,"type":"SCALAR"},{"bufferView":3,"byteOffset":2872,"componentType":5123,"count":156,"type":"SCALAR"},{"bufferView":3,"byteOffset":3184,"componentType":5123,"count":156,"type":"SCALAR"},{"bufferView":3,"byteOffset":3496,"componentType":5123,"count":156,"type":"SCALAR"},{"bufferView":3,"byteOffset":3808,"componentType":5123,"count":156,"type":"SCALAR"},{"bufferView":3,"byteOffset":4120,"componentType":5123,"count":156,"type":"SCALAR"},{"bufferView":3,"byteOffset":4432,"componentType":5123,"count":156,"type":"SCALAR"},{"bufferView":3,"byteOffset":4744,"componentType":5123,"count":156,"type":"SCALAR"},{"bufferView":3,"byteOffset":5056,"componentType":5123,"count":6,"type":"SCALAR"},{"bufferView":3,"byteOffset":5068,"componentType":5123,"count":72,"type":"SCALAR"},{"bufferView":3,"byteOffset":5212,"componentType":5123,"count":72,"type":"SCALAR"},{"bufferView":3,"byteOffset":5356,"componentType":5123,"count":72,"type":"SCALAR"},{"bufferView":3,"byteOffset":5500,"componentType":5123,"count":72,"type":"SCALAR"},{"bufferView":3,"byteOffset":5644,"componentType":5123,"count":72,"type":"SCALAR"},{"bufferView":3,"byteOffset":5788,"componentType":5123,"count":72,"type":"SCALAR"},{"bufferView":3,"byteOffset":5932,"componentType":5123,"count":72,"type":"SCALAR"},{"bufferView":3,"byteOffset":6076,"componentType":5123,"count":72,"type":"SCALAR"}],"asset":{"generator":"Open CASCADE Technology [www.opencascade.com]","version":"2.0"},"bufferViews":[{"buffer":0,"byteLength":13128,"byteOffset":0,"byteStride":12,"target":34962},{"buffer":0,"byteLength":13128,"byteOffset":13128,"byteStride":12,"target":34962},{"buffer":0,"byteLength":8752,"byteOffset":26256,"byteStride":8,"target":34962},{"buffer":0,"byteLength":6220,"byteOffset":35008,"target":34963}],"buffers":[{"byteLength":41228,"uri":"assy_001.bin"}],"materials":[{"name":"mat_0","pbrMetallicRoughness":{"baseColorFactor":[0.800000011920929,0.800000011920929,0.800000011920929,1.0]},"doubleSided":true}],"meshes":[{"name":"1x1x3_001","primitives":[{"attributes":{"NORMAL":40,"POSITION":0,"TEXCOORD_0":80},"indices":120,"material":0,"mode":4},{"attributes":{"NORMAL":41,"POSITION":1,"TEXCOORD_0":81},"indices":121,"material":0,"mode":4},{"attributes":{"NORMAL":42,"POSITION":2,"TEXCOORD_0":82},"indices":122,"material":0,"mode":4},{"attributes":{"NORMAL":43,"POSITION":3,"TEXCOORD_0":83},"indices":123,"material":0,"mode":4},{"attributes":{"NORMAL":44,"POSITION":4,"TEXCOORD_0":84},"indices":124,"material":0,"mode":4},{"attributes":{"NORMAL":45,"POSITION":5,"TEXCOORD_0":85},"indices":125,"material":0,"mode":4},{"attributes":{"NORMAL":46,"POSITION":6,"TEXCOORD_0":86},"indices":126,"material":0,"mode":4},{"attributes":{"NORMAL":47,"POSITION":7,"TEXCOORD_0":87},"indices":127,"material":0,"mode":4},{"attributes":{"NORMAL":48,"POSITION":8,"TEXCOORD_0":88},"indices":128,"material":0,"mode":4},{"attributes":{"NORMAL":49,"POSITION":9,"TEXCOORD_0":89},"indices":129,"material":0,"mode":4},{"attributes":{"NORMAL":50,"POSITION":10,"TEXCOORD_0":90},"indices":130,"material":0,"mode":4},{"attributes":{"NORMAL":51,"POSITION":11,"TEXCOORD_0":91},"indices":131,"material":0,"mode":4},{"attributes":{"NORMAL":52,"POSITION":12,"TEXCOORD_0":92},"indices":132,"material":0,"mode":4}]},{"name":"2x4x3_001","primitives":[{"attributes":{"NORMAL":53,"POSITION":13,"TEXCOORD_0":93},"indices":133,"material":0,"mode":4},{"attributes":{"NORMAL":54,"POSITION":14,"TEXCOORD_0":94},"indices":134,"material":0,"mode":4},{"attributes":{"NORMAL":55,"POSITION":15,"TEXCOORD_0":95},"indices":135,"material":0,"mode":4},{"attributes":{"NORMAL":56,"POSITION":16,"TEXCOORD_0":96},"indices":136,"material":0,"mode":4},{"attributes":{"NORMAL":57,"POSITION":17,"TEXCOORD_0":97},"indices":137,"material":0,"mode":4},{"attributes":{"NORMAL":58,"POSITION":18,"TEXCOORD_0":98},"indices":138,"material":0,"mode":4},{"attributes":{"NORMAL":59,"POSITION":19,"TEXCOORD_0":99},"indices":139,"material":0,"mode":4},{"attributes":{"NORMAL":60,"POSITION":20,"TEXCOORD_0":100},"indices":140,"material":0,"mode":4},{"attributes":{"NORMAL":61,"POSITION":21,"TEXCOORD_0":101},"indices":141,"material":0,"mode":4},{"attributes":{"NORMAL":62,"POSITION":22,"TEXCOORD_0":102},"indices":142,"material":0,"mode":4},{"attributes":{"NORMAL":63,"POSITION":23,"TEXCOORD_0":103},"indices":143,"material":0,"mode":4},{"attributes":{"NORMAL":64,"POSITION":24,"TEXCOORD_0":104},"indices":144,"material":0,"mode":4},{"attributes":{"NORMAL":65,"POSITION":25,"TEXCOORD_0":105},"indices":145,"material":0,"mode":4},{"attributes":{"NORMAL":66,"POSITION":26,"TEXCOORD_0":106},"indices":146,"material":0,"mode":4},{"attributes":{"NORMAL":67,"POSITION":27,"TEXCOORD_0":107},"indices":147,"material":0,"mode":4},{"attributes":{"NORMAL":68,"POSITION":28,"TEXCOORD_0":108},"indices":148,"material":0,"mode":4},{"attributes":{"NORMAL":69,"POSITION":29,"TEXCOORD_0":109},"indices":149,"material":0,"mode":4},{"attributes":{"NORMAL":70,"POSITION":30,"TEXCOORD_0":110},"indices":150,"material":0,"mode":4},{"attributes":{"NORMAL":71,"POSITION":31,"TEXCOORD_0":111},"indices":151,"material":0,"mode":4},{"attributes":{"NORMAL":72,"POSITION":32,"TEXCOORD_0":112},"indices":152,"material":0,"mode":4},{"attributes":{"NORMAL":73,"POSITION":33,"TEXCOORD_0":113},"indices":153,"material":0,"mode":4},{"attributes":{"NORMAL":74,"POSITION":34,"TEXCOORD_0":114},"indices":154,"material":0,"mode":4},{"attributes":{"NORMAL":75,"POSITION":35,"TEXCOORD_0":115},"indices":155,"material":0,"mode":4},{"attributes":{"NORMAL":76,"POSITION":36,"TEXCOORD_0":116},"indices":156,"material":0,"mode":4},{"attributes":{"NORMAL":77,"POSITION":37,"TEXCOORD_0":117},"indices":157,"material":0,"mode":4},{"attributes":{"NORMAL":78,"POSITION":38,"TEXCOORD_0":118},"indices":158,"material":0,"mode":4},{"attributes":{"NORMAL":79,"POSITION":39,"TEXCOORD_0":119},"indices":159,"material":0,"mode":4}]}],"nodes":[{"children":[1,2],"name":"assy_001"},{"mesh":0,"name":"1x1x3_001"},{"rotation":[-6.2826820737785399e-9,0.0,0.0,1.0],"translation":[3.809938274798802e-54,-9.600008155475012,8.000000060313745],"mesh":1,"name":"2x4x3_001"}],"scene":0,"scenes":[{"nodes":[0]}]}