{"accessors":[{"bufferView":0,"byteOffset":0,"componentType":5126,"count":4,"max":[76.0,8.0,0.0],"min":[0.0,0.0,0.0],"type":"VEC3"},{"bufferView":0,"byteOffset":48,"componentType":5126,"count":4,"max":[0.0,8.0,0.0],"min":[0.0,0.0,-76.0],"type":"VEC3"},{"bufferView":0,"byteOffset":96,"componentType":5126,"count":4,"max":[76.0,8.0,0.0],"min":[76.0,0.0,-76.0],"type":"VEC3"},{"bufferView":0,"byteOffset":144,"componentType":5126,"count":8,"max":[76.0,0.0,0.0],"min":[0.0,0.0,-76.0],"type":"VEC3"},{"bufferView":0,"byteOffset":240,"componentType":5126,"count":8,"max":[76.0,8.0,0.0],"min":[0.0,8.0,-76.0],"type":"VEC3"},{"bufferView":0,"byteOffset":336,"componentType":5126,"count":4,"max":[76.0,8.0,-76.0],"min":[0.0,0.0,-76.0],"type":"VEC3"},{"bufferView":0,"byteOffset":384,"componentType":5126,"count":4,"max":[74.0,6.0,-2.0],"min":[2.0,0.0,-2.0],"type":"VEC3"},{"bufferView":0,"byteOffset":432,"componentType":5126,"count":4,"max":[74.0,6.0,-2.0],"min":[74.0,0.0,-74.0],"type":"VEC3"},{"bufferView":0,"byteOffset":480,"componentType":5126,"count":4,"max":[74.0,6.0,-74.0],"min":[2.0,0.0,-74.0],"type":"VEC3"},{"bufferView":0,"byteOffset":528,"componentType":5126,"count":4,"max":[2.0,6.0,-2.0],"min":[2.0,0.0,-74.0],"type":"VEC3"},{"bufferView":0,"byteOffset":576,"componentType":5126,"count":4,"max":[75.0,98.0,-1.0],"min":[1.0,8.0,-1.0],"type":"VEC3"},{"bufferView":0,"byteOffset":624,"componentType":5126,"count":4,"max":[75.0,98.0,-1.0],"min":[75.0,8.0,-75.0],"type":"VEC3"},{"bufferView":0,"byteOffset":672,"componentType":5126,"count":4,"max":[75.0,98.0,-75.0],"min":[1.0,8.0,-75.0],"type":"VEC3"},{"bufferView":0,"byteOffset":720,"componentType":5126,"count":4,"max":[1.0,98.0,-1.0],"min":[1.0,8.0,-75.0],"type":"VEC3"},{"bufferView":0,"byteOffset":768,"componentType":5126,"count":4,"max":[74.0,6.0,-2.0],"min":[2.0,6.0,-74.0],"type":"VEC3"},{"bufferView":0,"byteOffset":816,"componentType":5126,"count":8,"max":[75.0,98.0,-1.0],"min":[1.0,98.0,-75.0],"type":"VEC3"},{"bufferView":0,"byteOffset":912,"componentType":5126,"count":4,"max":[73.0,98.0,-3.0],"min":[3.0,8.0,-3.0],"type":"VEC3"},{"bufferView":0,"byteOffset":960,"componentType":5126,"count":4,"max":[73.0,98.0,-3.0],"min":[73.0,8.0,-73.0],"type":"VEC3"},{"bufferView":0,"byteOffset":1008,"componentType":5126,"count":4,"max":[73.0,98.0,-73.0],"min":[3.0,8.0,-73.0],"type":"VEC3"},{"bufferView":0,"byteOffset":1056,"componentType":5126,"count":4,"max":[3.0,98.0,-3.0],"min":[3.0,8.0,-73.0],"type":"VEC3"},{"bufferView":0,"byteOffset":1104,"componentType":5126,"count":4,"max":[73.0,8.0,-3.0],"min":[3.0,8.0,-73.0],"type":"VEC3"},{"bufferView":1,"byteOffset":0,"componentType":5126,"count":4,"type":"VEC3"},{"bufferView":1,"byteOffset":48,"componentType":5126,"count":4,"type":"VEC3"},{"bufferView":1,"byteOffset":96,"componentType":5126,"count":4,"type":"VEC3"},{"bufferView":1,"byteOffset":144,"componentType":5126,"count":8,"type":"VEC3"},{"bufferView":1,"byteOffset":240,"componentType":5126,"count":8,"type":"VEC3"},{"bufferView":1,"byteOffset":336,"componentType":5126,"count":4,"type":"VEC3"},{"bufferView":1,"byteOffset":384,"componentType":5126,"count":4,"type":"VEC3"},{"bufferView":1,"byteOffset":432,"componentType":5126,"count":4,"type":"VEC3"},{"bufferView":1,"byteOffset":480,"componentType":5126,"count":4,"type":"VEC3"},{"bufferView":1,"byteOffset":528,"componentType":5126,"count":4,"type":"VEC3"},{"bufferView":1,"byteOffset":576,"componentType":5126,"count":4,"type":"VEC3"},{"bufferView":1,"byteOffset":624,"componentType":5126,"count":4,"type":"VEC3"},{"bufferView":1,"byteOffset":672,"componentType":5126,"count":4,"type":"VEC3"},{"bufferView":1,"byteOffset":720,"componentType":5126,"count":4,"type":"VEC3"},{"bufferView":1,"byteOffset":768,"componentType":5126,"count":4,"type":"VEC3"},{"bufferView":1,"byteOffset":816,"componentType":5126,"count":8,"type":"VEC3"},{"bufferView":1,"byteOffset":912,"componentType":5126,"count":4,"type":"VEC3"},{"bufferView":1,"byteOffset":960,"componentType":5126,"count":4,"type":"VEC3"},{"bufferView":1,"byteOffset":1008,"componentType":5126,"count":4,"type":"VEC3"},{"bufferView":1,"byteOffset":1056,"componentType":5126,"count":4,"type":"VEC3"},{"bufferView":1,"byteOffset":1104,"componentType":5126,"count":4,"type":"VEC3"},{"bufferView":2,"byteOffset":0,"componentType":5126,"count":4,"type":"VEC2"},{"bufferView":2,"byteOffset":32,"componentType":5126,"count":4,"type":"VEC2"},{"bufferView":2,"byteOffset":64,"componentType":5126,"count":4,"type":"VEC2"},{"bufferView":2,"byteOffset":96,"componentType":5126,"count":8,"type":"VEC2"},{"bufferView":2,"byteOffset":160,"componentType":5126,"count":8,"type":"VEC2"},{"bufferView":2,"byteOffset":224,"componentType":5126,"count":4,"type":"VEC2"},{"bufferView":2,"byteOffset":256,"componentType":5126,"count":4,"type":"VEC2"},{"bufferView":2,"byteOffset":288,"componentType":5126,"count":4,"type":"VEC2"},{"bufferView":2,"byteOffset":320,"componentType":5126,"count":4,"type":"VEC2"},{"bufferView":2,"byteOffset":352,"componentType":5126,"count":4,"type":"VEC2"},{"bufferView":2,"byteOffset":384,"componentType":5126,"count":4,"type":"VEC2"},{"bufferView":2,"byteOffset":416,"componentType":5126,"count":4,"type":"VEC2"},{"bufferView":2,"byteOffset":448,"componentType":5126,"count":4,"type":"VEC2"},{"bufferView":2,"byteOffset":480,"componentType":5126,"count":4,"type":"VEC2"},{"bufferView":2,"byteOffset":512,"componentType":5126,"count":4,"type":"VEC2"},{"bufferView":2,"byteOffset":544,"componentType":5126,"count":8,"type":"VEC2"},{"bufferView":2,"byteOffset":608,"componentType":5126,"count":4,"type":"VEC2"},{"bufferView":2,"byteOffset":640,"componentType":5126,"count":4,"type":"VEC2"},{"bufferView":2,"byteOffset":672,"componentType":5126,"count":4,"type":"VEC2"},{"bufferView":2,"byteOffset":704,"componentType":5126,"count":4,"type":"VEC2"},{"bufferView":2,"byteOffset":736,"componentType":5126,"count":4,"type":"VEC2"},{"bufferView":3,"byteOffset":0,"componentType":5123,"count":6,"type":"SCALAR"},{"bufferView":3,"byteOffset":12,"componentType":5123,"count":6,"type":"SCALAR"},{"bufferView":3,"byteOffset":24,"componentType":5123,"count":6,"type":"SCALAR"},{"bufferView":3,"byteOffset":36,"componentType":5123,"count":24,"type":"SCALAR"},{"bufferView":3,"byteOffset":84,"componentType":5123,"count":24,"type":"SCALAR"},{"bufferView":3,"byteOffset":132,"componentType":5123,"count":6,"type":"SCALAR"},{"bufferView":3,"byteOffset":144,"componentType":5123,"count":6,"type":"SCALAR"},{"bufferView":3,"byteOffset":156,"componentType":5123,"count":6,"type":"SCALAR"},{"bufferView":3,"byteOffset":168,"componentType":5123,"count":6,"type":"SCALAR"},{"bufferView":3,"byteOffset":180,"componentType":5123,"count":6,"type":"SCALAR"},{"bufferView":3,"byteOffset":192,"componentType":5123,"count":6,"type":"SCALAR"},{"bufferView":3,"byteOffset":204,"componentType":5123,"count":6,"type":"SCALAR"},{"bufferView":3,"byteOffset":216,"componentType":5123,"count":6,"type":"SCALAR"},{"bufferView":3,"byteOffset":228,"componentType":5123,"count":6,"type":"SCALAR"},{"bufferView":3,"byteOffset":240,"componentType":5123,"count":6,"type":"SCALAR"},{"bufferView":3,"byteOffset":252,"componentType":5123,"count":24,"type":"SCALAR"},{"bufferView":3,"byteOffset":300,"componentType":5123,"count":6,"type":"SCALAR"},{"bufferView":3,"byteOffset":312,"componentType":5123,"count":6,"type":"SCALAR"},{"bufferView":3,"byteOffset":324,"componentType":5123,"count":6,"type":"SCALAR"},{"bufferView":3,"byteOffset":336,"componentType":5123,"count":6,"type":"SCALAR"},{"bufferView":3,"byteOffset":348,"componentType":5123,"count":6,"type":"SCALAR"}],"asset":{"generator":"Open CASCADE Technology [www.opencascade.com]","version":"2.0"},"bufferViews":[{"buffer":0,"byteLength":1152,"byteOffset":0,"byteStride":12,"target":34962},{"buffer":0,"byteLength":1152,"byteOffset":1152,"byteStride":12,"target":34962},{"buffer":0,"byteLength":768,"byteOffset":2304,"byteStride":8,"target":34962},{"buffer":0,"byteLength":360,"byteOffset":3072,"target":34963}],"buffers":[{"byteLength":3432,"uri":"./000.00003.bin"}],"materials":[{"name":"mat_0","pbrMetallicRoughness":{"baseColorFactor":[0.0,0.0,0.0,1.0]},"doubleSided":true}],"meshes":[{"name":"Pocket001","primitives":[{"attributes":{"NORMAL":21,"POSITION":0,"TEXCOORD_0":42},"indices":63,"material":0,"mode":4},{"attributes":{"NORMAL":22,"POSITION":1,"TEXCOORD_0":43},"indices":64,"material":0,"mode":4},{"attributes":{"NORMAL":23,"POSITION":2,"TEXCOORD_0":44},"indices":65,"material":0,"mode":4},{"attributes":{"NORMAL":24,"POSITION":3,"TEXCOORD_0":45},"indices":66,"material":0,"mode":4},{"attributes":{"NORMAL":25,"POSITION":4,"TEXCOORD_0":46},"indices":67,"material":0,"mode":4},{"attributes":{"NORMAL":26,"POSITION":5,"TEXCOORD_0":47},"indices":68,"material":0,"mode":4},{"attributes":{"NORMAL":27,"POSITION":6,"TEXCOORD_0":48},"indices":69,"material":0,"mode":4},{"attributes":{"NORMAL":28,"POSITION":7,"TEXCOORD_0":49},"indices":70,"material":0,"mode":4},{"attributes":{"NORMAL":29,"POSITION":8,"TEXCOORD_0":50},"indices":71,"material":0,"mode":4},{"attributes":{"NORMAL":30,"POSITION":9,"TEXCOORD_0":51},"indices":72,"material":0,"mode":4},{"attributes":{"NORMAL":31,"POSITION":10,"TEXCOORD_0":52},"indices":73,"material":0,"mode":4},{"attributes":{"NORMAL":32,"POSITION":11,"TEXCOORD_0":53},"indices":74,"material":0,"mode":4},{"attributes":{"NORMAL":33,"POSITION":12,"TEXCOORD_0":54},"indices":75,"material":0,"mode":4},{"attributes":{"NORMAL":34,"POSITION":13,"TEXCOORD_0":55},"indices":76,"material":0,"mode":4},{"attributes":{"NORMAL":35,"POSITION":14,"TEXCOORD_0":56},"indices":77,"material":0,"mode":4},{"attributes":{"NORMAL":36,"POSITION":15,"TEXCOORD_0":57},"indices":78,"material":0,"mode":4},{"attributes":{"NORMAL":37,"POSITION":16,"TEXCOORD_0":58},"indices":79,"material":0,"mode":4},{"attributes":{"NORMAL":38,"POSITION":17,"TEXCOORD_0":59},"indices":80,"material":0,"mode":4},{"attributes":{"NORMAL":39,"POSITION":18,"TEXCOORD_0":60},"indices":81,"material":0,"mode":4},{"attributes":{"NORMAL":40,"POSITION":19,"TEXCOORD_0":61},"indices":82,"material":0,"mode":4},{"attributes":{"NORMAL":41,"POSITION":20,"TEXCOORD_0":62},"indices":83,"material":0,"mode":4}]}],"nodes":[{"mesh":0,"name":"Pocket001"}],"scene":0,"scenes":[{"nodes":[0]}]}